<svg width="13" height="13" viewBox="0 0 13 13" fill="none" xmlns="http://www.w3.org/2000/svg">
<path d="M6.40736 6.26215C7.26767 6.26215 8.01253 5.95359 8.62131 5.34482C9.22989 4.73614 9.53854 3.99138 9.53854 3.13098C9.53854 2.27087 9.22999 1.52601 8.62121 0.917135C8.01243 0.308555 7.26757 0 6.40736 0C5.54696 0 4.8022 0.308555 4.19352 0.917235C3.58484 1.52591 3.27618 2.27077 3.27618 3.13098C3.27618 3.99138 3.58484 4.73624 4.19352 5.34491C4.8024 5.9535 5.54726 6.26215 6.40736 6.26215ZM4.73228 1.45589C5.19933 0.988844 5.74721 0.761817 6.40736 0.761817C7.06742 0.761817 7.6154 0.988844 8.08255 1.45589C8.5496 1.92304 8.77672 2.47102 8.77672 3.13098C8.77672 3.79113 8.5496 4.33901 8.08255 4.80616C7.6154 5.27331 7.06742 5.50033 6.40736 5.50033C5.74741 5.50033 5.19952 5.27321 4.73228 4.80616C4.26513 4.33911 4.038 3.79113 4.038 3.13098C4.038 2.47102 4.26513 1.92304 4.73228 1.45589Z" fill="#A7ABAA"/>
<path d="M11.8861 9.99635C11.8685 9.74304 11.833 9.46672 11.7808 9.17493C11.728 8.88095 11.66 8.60305 11.5787 8.34904C11.4946 8.08651 11.3805 7.82724 11.2391 7.57879C11.0926 7.32092 10.9204 7.09637 10.7272 6.9116C10.5252 6.71829 10.2778 6.56287 9.99181 6.44951C9.70676 6.33674 9.39086 6.27961 9.05295 6.27961C8.92024 6.27961 8.7919 6.33406 8.54404 6.49543C8.3915 6.59491 8.21307 6.70996 8.01392 6.83721C7.84362 6.94572 7.61292 7.04738 7.32797 7.13942C7.04996 7.22938 6.76769 7.275 6.48899 7.275C6.21049 7.275 5.92822 7.22938 5.65001 7.13942C5.36536 7.04748 5.13456 6.94581 4.96456 6.83731C4.76729 6.71125 4.58876 6.5962 4.43394 6.49533C4.18628 6.33396 4.05794 6.27951 3.92523 6.27951C3.58722 6.27951 3.27142 6.33674 2.98647 6.44961C2.70063 6.56277 2.45317 6.71819 2.25094 6.9117C2.05773 7.09657 1.88555 7.32102 1.73916 7.57879C1.59802 7.82724 1.48376 8.08641 1.39966 8.34914C1.31843 8.60315 1.25049 8.88095 1.19772 9.17493C1.14536 9.46633 1.10995 9.74275 1.09239 9.99665C1.07513 10.2449 1.06641 10.5033 1.06641 10.7643C1.06641 11.4429 1.28213 11.9923 1.70752 12.3974C2.12766 12.7973 2.68347 13 3.3596 13H9.61918C10.2951 13 10.8509 12.7973 11.2712 12.3974C11.6966 11.9926 11.9124 11.443 11.9124 10.7642C11.9123 10.5023 11.9034 10.2439 11.8861 9.99635ZM10.7459 11.8455C10.4683 12.1097 10.0997 12.2382 9.61908 12.2382H3.3596C2.87886 12.2382 2.5103 12.1097 2.23279 11.8456C1.96053 11.5864 1.82822 11.2327 1.82822 10.7643C1.82822 10.5207 1.83626 10.2802 1.85233 10.0493C1.868 9.82279 1.90003 9.57394 1.94754 9.30952C1.99445 9.04837 2.05416 8.80329 2.12518 8.58142C2.19331 8.36868 2.28625 8.15802 2.4015 7.95509C2.51149 7.76169 2.63805 7.59575 2.77769 7.46206C2.90832 7.33699 3.07296 7.23463 3.26696 7.15787C3.44638 7.08685 3.64802 7.04797 3.86691 7.04212C3.89359 7.0563 3.9411 7.08338 4.01807 7.13357C4.17467 7.23562 4.35519 7.35206 4.55474 7.47951C4.77969 7.62293 5.0695 7.75246 5.41574 7.86424C5.76972 7.9787 6.13074 8.03682 6.48909 8.03682C6.84743 8.03682 7.20856 7.9787 7.56234 7.86434C7.90888 7.75236 8.19859 7.62293 8.42384 7.47931C8.62805 7.34879 8.8035 7.23572 8.96011 7.13357C9.03708 7.08348 9.08459 7.0563 9.11127 7.04212C9.33026 7.04797 9.5319 7.08685 9.71142 7.15787C9.90532 7.23463 10.07 7.33709 10.2006 7.46206C10.3402 7.59566 10.4668 7.76159 10.5768 7.95519C10.6921 8.15802 10.7852 8.36878 10.8532 8.58133C10.9243 8.80349 10.9841 9.04847 11.0309 9.30942C11.0783 9.57434 11.1105 9.82328 11.1262 10.0494V10.0496C11.1423 10.2796 11.1505 10.52 11.1506 10.7643C11.1505 11.2328 11.0181 11.5864 10.7459 11.8455Z" fill="#A7ABAA"/>
</svg>
