<svg width="24" height="24" viewBox="0 0 24 24" fill="none" xmlns="http://www.w3.org/2000/svg">
<path d="M20.5952 22.7826H3.40443C2.22464 22.7826 1.12874 22.1717 0.508534 21.1679C-0.111857 20.1644 -0.168273 18.9111 0.359435 17.8557L8.9548 3.13977C9.5316 1.98654 10.7103 1.25789 11.9998 1.25789C13.2893 1.25789 14.468 1.98654 15.0448 3.13977L23.6401 17.8557C24.1679 18.9111 24.1114 20.1644 23.491 21.1679C22.8708 22.1717 21.7751 22.7826 20.5952 22.7826Z" fill="#F0C419"/>
<path d="M20.5971 22.7826H11.9997V1.2579C13.2923 1.24984 14.4758 1.98142 15.0463 3.14142L23.6395 17.8568C24.1679 18.9115 24.1123 20.1647 23.4924 21.1683C22.8724 22.1721 21.7769 22.7829 20.5971 22.7826Z" fill="#F29C1F"/>
<path d="M13.6554 19.0571C13.6554 19.9717 12.914 20.713 11.9996 20.713C11.0852 20.713 10.3439 19.9717 10.3439 19.0571C10.3439 18.1427 11.0852 17.4015 11.9996 17.4015C12.914 17.4015 13.6554 18.1427 13.6554 19.0571Z" fill="#35495E"/>
<path d="M13.6555 19.0571C13.6555 19.4964 13.4812 19.9175 13.1707 20.2281C12.86 20.5386 12.4389 20.713 11.9997 20.713V17.4015C12.4389 17.4013 12.86 17.5757 13.1707 17.8863C13.4812 18.1968 13.6555 18.6181 13.6555 19.0571Z" fill="#2C3E50"/>
<path d="M11.9996 4.56941C12.914 4.56941 13.6554 5.31069 13.6554 6.22525V14.09C13.6554 15.0043 12.914 15.7456 11.9996 15.7456C11.0852 15.7456 10.3439 15.0043 10.3439 14.09V6.22525C10.3439 5.31069 11.0852 4.56941 11.9996 4.56941Z" fill="#35495E"/>
<path d="M13.6555 6.22525V14.09C13.6555 14.5292 13.4812 14.9503 13.1707 15.2608C12.86 15.5714 12.4389 15.7458 11.9997 15.7456V4.56941C12.4389 4.56886 12.8606 4.74305 13.1712 5.05371C13.4817 5.36436 13.6561 5.78583 13.6555 6.22525Z" fill="#2C3E50"/>
</svg>
