<svg width="14" height="9" viewBox="0 0 14 9" fill="none" xmlns="http://www.w3.org/2000/svg">
<path d="M12.7695 0H1.23047C0.551988 0 0 0.517937 0 1.15456V7.84544C0 8.48206 0.551988 9 1.23047 9H12.7695C13.448 9 14 8.48206 14 7.84544V1.15456C14 0.517937 13.448 0 12.7695 0ZM12.6089 0.769709L12.4447 0.898019L7.4882 4.77071C7.2053 4.99172 6.79465 4.99172 6.5118 4.77071L1.55529 0.898019L1.39106 0.769709H12.6089ZM0.820312 1.32539L4.85877 4.48076L0.820312 7.00266V1.32539ZM12.7695 8.23029H1.23047C1.03228 8.23029 0.866523 8.0977 0.828543 7.92213L5.51649 4.99464L5.98691 5.3622C6.28042 5.59152 6.64024 5.70618 7.00003 5.70618C7.35982 5.70618 7.71961 5.59152 8.01314 5.3622L8.48356 4.99464L13.1715 7.9221C13.1335 8.09772 12.9677 8.23029 12.7695 8.23029ZM13.1797 7.00266L9.14123 4.48078L13.1797 1.32539V7.00266Z" fill="#A7ABAA"/>
</svg>
